<?xml version="1.0" encoding="UTF-8" standalone="no"?>
<!-- Uploaded to: SVG Repo, www.svgrepo.com, Generator: SVG Repo Mixer Tools -->

<svg
   version="1.1"
   id="Capa_1"
   width="649.75"
   height="700.12543"
   viewBox="0 0 25.99 28.005017"
   enable-background="new 0 0 32 32"
   xml:space="preserve"
   sodipodi:docname="art copy.svg"
   inkscape:version="1.3 (0e150ed6c4, 2023-07-21)"
   inkscape:export-filename="favicon.png"
   inkscape:export-xdpi="7.0919585"
   inkscape:export-ydpi="7.0919585"
   xmlns:inkscape="http://www.inkscape.org/namespaces/inkscape"
   xmlns:sodipodi="http://sodipodi.sourceforge.net/DTD/sodipodi-0.dtd"
   xmlns="http://www.w3.org/2000/svg"
   xmlns:svg="http://www.w3.org/2000/svg"><defs
   id="defs2" /><sodipodi:namedview
   id="namedview2"
   pagecolor="#ffffff"
   bordercolor="#000000"
   borderopacity="0.25"
   inkscape:showpageshadow="2"
   inkscape:pageopacity="0.0"
   inkscape:pagecheckerboard="0"
   inkscape:deskcolor="#d1d1d1"
   inkscape:zoom="0.93875"
   inkscape:cx="243.94141"
   inkscape:cy="365.91212"
   inkscape:window-width="1920"
   inkscape:window-height="986"
   inkscape:window-x="-11"
   inkscape:window-y="-11"
   inkscape:window-maximized="1"
   inkscape:current-layer="Capa_1" />&#10;	 <path
   fill="#14bf96"
   d="m 1.65,5.8025084 a 3.56,3.56 0 0 0 -1.65,2.8 V 19.402508 a 3.56,3.56 0 0 0 1.65,2.8 l 9.69,5.42 a 3.75,3.75 0 0 0 3.3,0 l 9.7,-5.42 a 3.56,3.56 0 0 0 1.65,-2.8 V 8.6025084 a 3.56,3.56 0 0 0 -1.65,-2.8 L 14.65,0.38250835 a 3.75,3.75 0 0 0 -3.3,0 z"
   id="path1" />&#10;	 <path
   fill="#ffffff"
   d="m 22.95,11.322508 c -5.38,0 -9.4,4.46 -9.4,9.93 v 0.23 h -1.08 v -0.23 c 0,-5.47 -4,-9.91 -9.42,-9.93 0,0.34 0,0.69 0,1 a 9.91,9.91 0 0 0 6.4,9.32 10.47,10.47 0 0 0 3.59,0.64 10.64,10.64 0 0 0 3.62,-0.64 9.92,9.92 0 0 0 6.39,-9.32 c -0.05,-0.32 -0.07,-0.66 -0.1,-1 z"
   id="path2" />&#10;	 <circle
   fill="#ffffff"
   cx="13"
   cy="8.7425079"
   r="3"
   id="circle2" />&#10;<rect
   style="fill:#ffff00;stroke:#ffffff;stroke-width:0;stroke-dasharray:none"
   id="rect3"
   width="15.936086"
   height="6.0397062"
   x="9.9483948"
   y="21.273212"
   ry="3.0198531" /><text
   xml:space="preserve"
   style="font-size:0.586667px;font-family:Sans;-inkscape-font-specification:Sans;fill:#ffff00;stroke:#ffffff;stroke-width:0;stroke-dasharray:none"
   x="16.703062"
   y="25.438084"
   id="text3"><tspan
     sodipodi:role="line"
     id="tspan3"
     style="font-size:0.586667px;stroke-width:0"
     x="16.703062"
     y="25.438084" /></text><path
   style="font-weight:bold;font-size:1.92px;font-family:Sans;-inkscape-font-specification:'Sans Bold';fill:#14bf96;stroke:#ffffff;stroke-width:0"
   d="m 14.233275,25.467394 q -0.265771,0 -0.491516,-0.07846 -0.224144,-0.07845 -0.385847,-0.23375 Q 13.194204,24.99988 13.10455,24.767735 13.0165,24.535586 13.0165,24.23139 q 0,-0.283381 0.08486,-0.513928 0.08486,-0.230548 0.246559,-0.395455 0.155303,-0.158497 0.384246,-0.244956 0.230548,-0.08646 0.502723,-0.08646 0.150505,0 0.270574,0.01761 0.121678,0.01605 0.224144,0.04322 0.107264,0.03041 0.193723,0.06884 0.08805,0.03682 0.153699,0.06884 v 0.57797 h -0.07044 q -0.04483,-0.03843 -0.113669,-0.09126 -0.06723,-0.05284 -0.153699,-0.104071 -0.08805,-0.05123 -0.190523,-0.08646 -0.102465,-0.03521 -0.219339,-0.03521 -0.129688,0 -0.246559,0.04162 -0.116879,0.04003 -0.216139,0.134486 -0.09446,0.09126 -0.153699,0.241756 -0.05764,0.150488 -0.05764,0.365035 0,0.224143 0.06244,0.37464 0.06404,0.150488 0.160103,0.236952 0.09767,0.08805 0.217739,0.126477 0.120073,0.03682 0.236952,0.03682 0.112081,0 0.220942,-0.03363 0.110475,-0.03363 0.20333,-0.09126 0.07845,-0.04643 0.145689,-0.09927 0.06723,-0.05284 0.110475,-0.09126 h 0.06404 v 0.569965 q -0.08966,0.04003 -0.171309,0.07524 -0.08165,0.03521 -0.171311,0.06083 -0.116879,0.03363 -0.219339,0.05123 -0.102466,0.01761 -0.281781,0.01761 z M 17.846793,24.2298 q 0,0.569966 -0.32661,0.906182 -0.32661,0.334614 -0.902979,0.334614 -0.574768,0 -0.901378,-0.334614 -0.326609,-0.336216 -0.326609,-0.906182 0,-0.574769 0.326609,-0.907783 0.32661,-0.334614 0.901378,-0.334614 0.573167,0 0.901379,0.334614 0.32821,0.333014 0.32821,0.907783 z m -0.814922,0.603587 q 0.08966,-0.10887 0.132881,-0.256165 0.04322,-0.148899 0.04322,-0.349024 0,-0.214537 -0.04963,-0.365034 -0.04963,-0.150505 -0.129687,-0.243356 -0.08165,-0.09606 -0.188921,-0.139285 -0.105677,-0.04322 -0.220942,-0.04322 -0.116879,0 -0.220942,0.04162 -0.102466,0.04162 -0.188921,0.137697 -0.08004,0.08966 -0.131293,0.24816 -0.04963,0.156909 -0.04963,0.365034 0,0.212936 0.04802,0.363432 0.04963,0.1489 0.129687,0.243356 0.08004,0.09446 0.18732,0.139285 0.107264,0.04483 0.225745,0.04483 0.118485,0 0.225744,-0.04483 0.107265,-0.04643 0.187321,-0.142495 z m 3.251685,-1.04387 q 0,0.160103 -0.05603,0.313801 -0.05603,0.152094 -0.160102,0.256165 -0.142496,0.14089 -0.318606,0.212937 -0.174511,0.07205 -0.435479,0.07205 h -0.382645 v 0.776499 h -0.614796 v -2.38393 h 1.011849 q 0.227346,0 0.382645,0.04003 0.156909,0.03843 0.276978,0.11688 0.144101,0.09446 0.21934,0.241756 0.07685,0.147294 0.07685,0.353826 z m -0.635607,0.01435 q 0,-0.10086 -0.05443,-0.172911 -0.05443,-0.07364 -0.126477,-0.102465 -0.09606,-0.03843 -0.18732,-0.04162 -0.09126,-0.0048 -0.243356,-0.0048 h -0.105672 v 0.714058 h 0.176113 q 0.156909,0 0.257764,-0.01921 0.102466,-0.01921 0.171311,-0.07685 0.05924,-0.05123 0.08486,-0.121678 0.02722,-0.07205 0.02722,-0.174511 z m 3.168432,-0.766893 -0.878963,1.461739 v 0.922192 H 21.322624 V 24.527527 L 20.42925,23.036969 h 0.698048 l 0.515531,0.922192 0.497919,-0.922192 z"
   id="text4"
   aria-label="COPY" /></svg>
