<?xml version="1.0" encoding="UTF-8" standalone="no"?>
<!-- Uploaded to: SVG Repo, www.svgrepo.com, Generator: SVG Repo Mixer Tools -->

<svg
   version="1.1"
   id="Capa_1"
   width="649.75"
   height="700.12543"
   viewBox="0 0 25.99 28.005017"
   enable-background="new 0 0 32 32"
   xml:space="preserve"
   sodipodi:docname="art copy.svg"
   inkscape:version="1.3 (0e150ed6c4, 2023-07-21)"
   inkscape:export-filename="art copy.png"
   inkscape:export-xdpi="5.6144671"
   inkscape:export-ydpi="5.6144671"
   xmlns:inkscape="http://www.inkscape.org/namespaces/inkscape"
   xmlns:sodipodi="http://sodipodi.sourceforge.net/DTD/sodipodi-0.dtd"
   xmlns="http://www.w3.org/2000/svg"
   xmlns:svg="http://www.w3.org/2000/svg"><defs
   id="defs2" /><sodipodi:namedview
   id="namedview2"
   pagecolor="#ffffff"
   bordercolor="#000000"
   borderopacity="0.25"
   inkscape:showpageshadow="2"
   inkscape:pageopacity="0.0"
   inkscape:pagecheckerboard="0"
   inkscape:deskcolor="#d1d1d1"
   inkscape:zoom="0.93875"
   inkscape:cx="243.94141"
   inkscape:cy="365.91212"
   inkscape:window-width="1920"
   inkscape:window-height="986"
   inkscape:window-x="-11"
   inkscape:window-y="-11"
   inkscape:window-maximized="1"
   inkscape:current-layer="Capa_1" />&#10;	 <path
   fill="#14bf96"
   d="m 1.65,5.8025084 a 3.56,3.56 0 0 0 -1.65,2.8 V 19.402508 a 3.56,3.56 0 0 0 1.65,2.8 l 9.69,5.42 a 3.75,3.75 0 0 0 3.3,0 l 9.7,-5.42 a 3.56,3.56 0 0 0 1.65,-2.8 V 8.6025084 a 3.56,3.56 0 0 0 -1.65,-2.8 L 14.65,0.38250835 a 3.75,3.75 0 0 0 -3.3,0 z"
   id="path1" />&#10;	 <path
   fill="#ffffff"
   d="m 22.95,11.322508 c -5.38,0 -9.4,4.46 -9.4,9.93 v 0.23 h -1.08 v -0.23 c 0,-5.47 -4,-9.91 -9.42,-9.93 0,0.34 0,0.69 0,1 a 9.91,9.91 0 0 0 6.4,9.32 10.47,10.47 0 0 0 3.59,0.64 10.64,10.64 0 0 0 3.62,-0.64 9.92,9.92 0 0 0 6.39,-9.32 c -0.05,-0.32 -0.07,-0.66 -0.1,-1 z"
   id="path2" />&#10;	 <circle
   fill="#ffffff"
   cx="13"
   cy="8.7425079"
   r="3"
   id="circle2" />&#10;<rect
   style="fill:#ffff00;stroke:#ffffff;stroke-width:0;stroke-dasharray:none"
   id="rect3"
   width="9.3315592"
   height="3.5366197"
   x="14.678088"
   y="23.478029"
   ry="1.7683098" /><text
   xml:space="preserve"
   style="font-size:0.586667px;font-family:Sans;-inkscape-font-specification:Sans;fill:#ffff00;stroke:#ffffff;stroke-width:0;stroke-dasharray:none"
   x="16.703062"
   y="25.438084"
   id="text3"><tspan
     sodipodi:role="line"
     id="tspan3"
     style="font-size:0.586667px;stroke-width:0"
     x="16.703062"
     y="25.438084" /></text><path
   style="font-weight:bold;font-size:1.92px;font-family:Sans;-inkscape-font-specification:'Sans Bold';fill:#14bf96;stroke:#ffffff;stroke-width:0"
   d="m 17.187149,25.933981 q -0.155625,0 -0.287813,-0.04594 -0.13125,-0.04594 -0.225937,-0.136875 -0.09469,-0.09094 -0.147188,-0.226875 -0.05156,-0.135938 -0.05156,-0.314063 0,-0.165937 0.04969,-0.300937 0.04969,-0.135 0.144375,-0.231563 0.09094,-0.09281 0.225,-0.143437 0.135,-0.05063 0.294375,-0.05063 0.08813,0 0.158438,0.01031 0.07125,0.0094 0.13125,0.02531 0.06281,0.01781 0.113437,0.04031 0.05156,0.02156 0.09,0.04031 v 0.338437 h -0.04125 q -0.02625,-0.0225 -0.06656,-0.05344 -0.03937,-0.03094 -0.09,-0.06094 -0.05156,-0.03 -0.111563,-0.05063 -0.06,-0.02062 -0.128437,-0.02062 -0.07594,0 -0.144375,0.02437 -0.06844,0.02344 -0.126563,0.07875 -0.05531,0.05344 -0.09,0.141563 -0.03375,0.08812 -0.03375,0.21375 0,0.13125 0.03656,0.219375 0.0375,0.08812 0.09375,0.13875 0.05719,0.05156 0.1275,0.07406 0.07031,0.02156 0.13875,0.02156 0.06563,0 0.129375,-0.01969 0.06469,-0.01969 0.119062,-0.05344 0.04594,-0.02719 0.08531,-0.05813 0.03937,-0.03094 0.06469,-0.05344 h 0.0375 v 0.33375 q -0.0525,0.02344 -0.100312,0.04406 -0.04781,0.02062 -0.100313,0.03562 -0.06844,0.01969 -0.128437,0.03 -0.06,0.01031 -0.165,0.01031 z m 2.115937,-0.724687 q 0,0.33375 -0.19125,0.530625 -0.19125,0.195937 -0.52875,0.195937 -0.336562,0 -0.527812,-0.195937 -0.19125,-0.196875 -0.19125,-0.530625 0,-0.336563 0.19125,-0.531563 0.19125,-0.195937 0.527812,-0.195937 0.335625,0 0.527813,0.195937 0.192187,0.195 0.192187,0.531563 z m -0.477187,0.353437 q 0.0525,-0.06375 0.07781,-0.15 0.02531,-0.08719 0.02531,-0.204375 0,-0.125625 -0.02906,-0.21375 -0.02906,-0.08813 -0.07594,-0.1425 -0.04781,-0.05625 -0.110625,-0.08156 -0.06188,-0.02531 -0.129375,-0.02531 -0.06844,0 -0.129375,0.02437 -0.06,0.02437 -0.110625,0.08063 -0.04687,0.0525 -0.07688,0.145313 -0.02906,0.09188 -0.02906,0.21375 0,0.124687 0.02812,0.212812 0.02906,0.08719 0.07594,0.1425 0.04687,0.05531 0.109687,0.08156 0.06281,0.02625 0.132188,0.02625 0.06938,0 0.132187,-0.02625 0.06281,-0.02719 0.109688,-0.08344 z m 1.904062,-0.61125 q 0,0.09375 -0.03281,0.18375 -0.03281,0.08906 -0.09375,0.15 -0.08344,0.0825 -0.186563,0.124688 -0.102187,0.04219 -0.255,0.04219 h -0.224062 v 0.454688 h -0.36 v -1.395938 h 0.5925 q 0.133125,0 0.224062,0.02344 0.09188,0.0225 0.162188,0.06844 0.08438,0.05531 0.128437,0.141563 0.045,0.08625 0.045,0.207187 z m -0.372187,0.0084 q 0,-0.05906 -0.03187,-0.10125 -0.03187,-0.04312 -0.07406,-0.06 -0.05625,-0.0225 -0.109687,-0.02437 -0.05344,-0.0028 -0.1425,-0.0028 h -0.06188 v 0.418125 h 0.103125 q 0.09188,0 0.150937,-0.01125 0.06,-0.01125 0.100313,-0.045 0.03469,-0.03 0.04969,-0.07125 0.01594,-0.04219 0.01594,-0.102187 z m 1.855312,-0.449063 -0.514687,0.855938 v 0.54 h -0.36 v -0.523125 l -0.523125,-0.872813 h 0.40875 l 0.301875,0.54 0.291562,-0.54 z"
   id="text4"
   aria-label="COPY" /></svg>
